{
	"asset":{
		"generator":"Khronos glTF Blender I/O v4.2.69",
		"version":"2.0"
	},
	"scene":0,
	"scenes":[
		{
			"name":"Scene",
			"nodes":[
				0
			]
		}
	],
	"nodes":[
		{
			"mesh":0,
			"name":"Text",
			"rotation":[
				0.6946583986282349,
				0,
				0,
				0.7193397879600525
			],
			"scale":[
				0.7951561808586121,
				0.7951563000679016,
				0.7951563000679016
			],
			"translation":[
				-6.2140913009643555,
				0.17269366979599,
				-0.038168132305145264
			]
		}
	],
	"meshes":[
		{
			"name":"Text",
			"primitives":[
				{
					"attributes":{
						"POSITION":0,
						"NORMAL":1,
						"TEXCOORD_0":2
					},
					"indices":3
				}
			]
		}
	],
	"accessors":[
		{
			"bufferView":0,
			"componentType":5126,
			"count":9153,
			"max":[
				14.645998001098633,
				0.10999998450279236,
				0.09916878491640091
			],
			"min":[
				-0.042182229459285736,
				-0.10999998450279236,
				-0.7811643481254578
			],
			"type":"VEC3"
		},
		{
			"bufferView":1,
			"componentType":5126,
			"count":9153,
			"type":"VEC3"
		},
		{
			"bufferView":2,
			"componentType":5126,
			"count":9153,
			"type":"VEC2"
		},
		{
			"bufferView":3,
			"componentType":5123,
			"count":47088,
			"type":"SCALAR"
		}
	],
	"bufferViews":[
		{
			"buffer":0,
			"byteLength":109836,
			"byteOffset":0,
			"target":34962
		},
		{
			"buffer":0,
			"byteLength":109836,
			"byteOffset":109836,
			"target":34962
		},
		{
			"buffer":0,
			"byteLength":73224,
			"byteOffset":219672,
			"target":34962
		},
		{
			"buffer":0,
			"byteLength":94176,
			"byteOffset":292896,
			"target":34963
		}
	],
	"buffers":[
		{
			"byteLength":387072,
			"uri":"connecttowallet.bin"
		}
	]
}
